<svg xmlns="http://www.w3.org/2000/svg" version="1.1" xmlns:xlink="http://www.w3.org/1999/xlink" xmlns:svgjs="http://svgjs.dev/svgjs" width="1500" height="995" viewBox="0 0 1500 995"><g transform="matrix(1,0,0,1,0.9241935915404156,0.40357788935176586)"><svg viewBox="0 0 372 247" data-background-color="#fefbf6" preserveAspectRatio="xMidYMid meet" height="995" width="1500" xmlns="http://www.w3.org/2000/svg" xmlns:xlink="http://www.w3.org/1999/xlink"><g id="tight-bounds" transform="matrix(1,0,0,1,-0.2292000107020158,-0.09997365579206985)"><svg viewBox="0 0 372.4582303381642 247.2" height="247.2" width="372.4582303381642"><g><svg viewBox="0 0 372.4582303381642 247.2" height="247.2" width="372.4582303381642"><g><svg viewBox="0 0 372.4582303381642 247.2" height="247.2" width="372.4582303381642"><g id="textblocktransform"><svg viewBox="0 0 372.4582303381642 247.2" height="247.2" width="372.4582303381642" id="textblock"><g><svg viewBox="0 0 372.4582303381642 247.2" height="247.2" width="372.4582303381642"><path d="M371.586 53.02C369.835 27.36 364.845 20.227 364.845 20.227 349.524-6.202 330.403-0.506 313.225 3.292 282.898 3.446 252.693 9.091 222.436 12.119 158.927 12.581 94.875 4.986 31.681 23.717 25.745 29.464-6.158 24.846 1.056 56.304 2.947 69.39 9.846 83.913 9.636 95.922 10.581 98.026 11.895 93.202 12.455 96.23 14.416 104.39 17.62 100.541 20.247 105.365 16.587 118.246 19.214 128.971 21.718 140.21 17.305 143.135 11.649 141.749 9.11 151.449 8.848 158.479 7.43 157.145 5.871 156.837 4.733 156.632 2.439 157.402 2.824 159.608 4.138 167.152-1.501 171.514 2.036 178.904-0.397 186.91 3.717 193.838 3.157 202.511 3.087 204.255 3.472 205.744 4.085 206.154 6.799 208.361 2.842 212.672 3.262 217.342 31.103 249.262 61.308 227.195 89.832 241.872 97.239 231.608 91.67 245.516 94.63 243.36 96.941 240.846 98.622 251.263 101.231 245.362 101.634 243.668 101.021 239.665 102.457 240.435 103.21 240.846 103.875 240.743 103.98 238.382 104.138 234.841 102.754 237.048 102.387 235.201 106.361 225.861 105.381 248.081 109.11 247.158 108.935 244.438 107.85 240.538 110.073 241.051 112.28 237.151 112.35 233.918 114.311 242.693 114.381 244.592 114.731 245.926 115.291 246.85 121.42 237.305 127.513 250.237 133.94 245.926 137.879 241.205 141.662 248.492 145.654 246.696 147.055 245.259 148.473 242.693 149.821 247.004 166.333 247.928 183.931 244.079 199.585 247.158 241.416 241.41 286.12 249.518 330.227 241.923 340.628 238.998 351.432 234.841 361.57 231.506 361.57 231.506 369.783 222.371 369.783 181.316S371.534 145.393 371.796 112.703C372.059 80.013 373.285 78.679 371.534 53.02Z" opacity="1" fill="#002244" data-fill-palette-color="tertiary"></path><g transform="matrix(1,0,0,1,55.768319999999974,26.230666666666668)"><svg width="260.9215903381642" viewBox="1.27 -33.08 45.13999999999999 33.69" height="194.73866666666666" data-palette-color="#fefbf6"><path d="M18.75-33.08L18.75-33.08Q23.32-33.08 26.54-31.49L26.54-31.49 26.54-24.02 26.49-23.97Q25.12-26.07 20.73-26.76L20.73-26.76Q19.43-26.98 17.46-26.98 15.48-26.98 13.57-26.23 11.67-25.49 10.45-24.12L10.45-24.12Q8.08-21.46 8.08-16.53L8.08-16.53Q8.08-10.79 11.08-7.98L11.08-7.98Q13.57-5.64 17.68-5.64L17.68-5.64Q22.31-5.64 25.2-7.62L25.2-7.62Q26.25-8.33 26.98-9.38L26.98-9.38 27.05-9.33 27.05-2.49Q23.32 0.61 16.99 0.61L16.99 0.61Q9.55 0.61 5.32-4.13L5.32-4.13Q1.27-8.64 1.27-16.09L1.27-16.09Q1.27-23.97 5.71-28.52L5.71-28.52Q10.21-33.08 18.75-33.08ZM39.94-10.6L39.94-32.59Q41.45-32.47 42.14-32.47L42.14-32.47 44.04-32.47Q45.24-32.47 46.41-32.67L46.41-32.67 46.41-10.79Q46.41-5.42 43.55-2.34L43.55-2.34Q40.84 0.61 36.23 0.61L36.23 0.61Q33.05 0.61 30.91-0.66L30.91-0.66Q30.1-1.12 29.29-1.78L29.29-1.78 29.29-8.84 29.47-8.89Q30.49-7.28 31.87-6.25 33.25-5.22 35.3-5.22L35.3-5.22Q39.94-5.22 39.94-10.6L39.94-10.6Z" opacity="1" transform="matrix(1,0,0,1,0,0)" fill="#fefbf6" class="wordmark-text-0" data-fill-palette-color="quaternary" id="text-0"></path></svg></g></svg></g></svg></g></svg></g><g></g></svg></g><defs></defs></svg><rect width="372.4582303381642" height="247.2" fill="none" stroke="none" visibility="hidden"></rect></g></svg></g></svg>